<?xml version="1.0" encoding="utf-8"?>
<!-- Generator: Adobe Illustrator 20.0.0, SVG Export Plug-In . SVG Version: 6.00 Build 0)  -->
<svg version="1.1" id="Layer_1" xmlns="http://www.w3.org/2000/svg" xmlns:xlink="http://www.w3.org/1999/xlink" x="0px" y="0px"
	 viewBox="0 0 222.8 39.3" style="enable-background:new 0 0 222.8 39.3;" xml:space="preserve">
<style type="text/css">
	.st0{fill:#FFFFFF;}
</style>
<g>
	<g>
		<path d="M132.1,38.6c-1.9,0-2.9-0.7-3.8-1.4c-0.8-0.6-1.6-1.1-3.1-1.1c-1.5,0-2.2,0.5-3.1,1.1c-0.9,0.6-1.9,1.4-3.8,1.4
			c-1.9,0-2.9-0.7-3.8-1.4c-0.8-0.6-1.6-1.1-3.1-1.1c-1.5,0-2.2,0.5-3.1,1.1c-0.9,0.6-1.9,1.4-3.8,1.4c-1.9,0-2.9-0.7-3.8-1.4
			c-0.8-0.6-1.6-1.1-3.1-1.1c-1.5,0-2.2,0.5-3.1,1.1c-0.9,0.6-1.9,1.4-3.8,1.4v-1.3c1.5,0,2.2-0.5,3.1-1.1c0.9-0.6,1.9-1.4,3.8-1.4
			c1.9,0,2.9,0.7,3.8,1.4c0.8,0.6,1.6,1.1,3.1,1.1c1.5,0,2.2-0.5,3.1-1.1c0.9-0.6,1.9-1.4,3.8-1.4c1.9,0,2.9,0.7,3.8,1.4
			c0.8,0.6,1.6,1.1,3.1,1.1c1.5,0,2.2-0.5,3.1-1.1c0.9-0.6,1.9-1.4,3.8-1.4s2.9,0.7,3.8,1.4c0.8,0.6,1.6,1.1,3.1,1.1V38.6z"/>
	</g>
	<g>
		<path d="M132.1,33.5c-1.9,0-2.9-0.7-3.8-1.4c-0.8-0.6-1.6-1.1-3.1-1.1c-1.5,0-2.2,0.5-3.1,1.1c-0.9,0.6-1.9,1.4-3.8,1.4
			c-1.9,0-2.9-0.7-3.8-1.4c-0.8-0.6-1.6-1.1-3.1-1.1c-1.5,0-2.2,0.5-3.1,1.1c-0.9,0.6-1.9,1.4-3.8,1.4c-1.9,0-2.9-0.7-3.8-1.4
			c-0.8-0.6-1.6-1.1-3.1-1.1c-1.5,0-2.2,0.5-3.1,1.1c-0.9,0.6-1.9,1.4-3.8,1.4v-1.3c1.5,0,2.2-0.5,3.1-1.1c0.9-0.6,1.9-1.4,3.8-1.4
			c1.9,0,2.9,0.7,3.8,1.4c0.8,0.6,1.6,1.1,3.1,1.1c1.5,0,2.2-0.5,3.1-1.1c0.9-0.6,1.9-1.4,3.8-1.4c1.9,0,2.9,0.7,3.8,1.4
			c0.8,0.6,1.6,1.1,3.1,1.1c1.5,0,2.2-0.5,3.1-1.1c0.9-0.6,1.9-1.4,3.8-1.4s2.9,0.7,3.8,1.4c0.8,0.6,1.6,1.1,3.1,1.1V33.5z"/>
	</g>
	<g>
		<path d="M1.4,1.7C1.4,1.4,1.7,1,2.1,1H8c4,0,6.8,2.1,6.8,5.6v0.1c0,3.8-3.3,5.8-7.1,5.8H2.8v6.2c0,0.4-0.3,0.7-0.7,0.7
			S1.4,19,1.4,18.7V1.7z M7.8,11.2c3.4,0,5.7-1.8,5.7-4.5V6.7c0-2.9-2.2-4.4-5.5-4.4H2.8v8.9H7.8z"/>
		<path d="M30.3,1.6c0-0.4,0.3-0.7,0.7-0.7c0.4,0,0.7,0.3,0.7,0.7v17c0,0.4-0.3,0.7-0.7,0.7c-0.4,0-0.7-0.3-0.7-0.7V1.6z"/>
		<path d="M48,18.3l6.5-8.3l-6.2-7.9c-0.1-0.2-0.2-0.3-0.2-0.5c0-0.3,0.3-0.6,0.6-0.6c0.3,0,0.4,0.1,0.6,0.3l6,7.8l5.9-7.7
			c0.2-0.2,0.4-0.4,0.6-0.4c0.3,0,0.6,0.3,0.6,0.6c0,0.2-0.1,0.3-0.2,0.4l-6.2,7.9l6.4,8.3c0.2,0.2,0.2,0.3,0.2,0.5
			c0,0.3-0.3,0.6-0.6,0.6c-0.3,0-0.4-0.1-0.6-0.3l-6.3-8.2l-6.2,8.1c-0.2,0.2-0.4,0.4-0.6,0.4c-0.3,0-0.6-0.3-0.6-0.6
			C47.9,18.6,47.9,18.4,48,18.3z"/>
		<path d="M110.7,1.6c0-0.4,0.3-0.7,0.7-0.7h0.1c0.3,0,0.5,0.2,0.7,0.4l7.1,10.4l7.1-10.4c0.2-0.2,0.4-0.4,0.7-0.4h0.1
			c0.4,0,0.7,0.3,0.7,0.7v17c0,0.4-0.3,0.7-0.7,0.7c-0.4,0-0.7-0.3-0.7-0.7V3.4l-6.7,9.7c-0.2,0.2-0.3,0.3-0.6,0.3s-0.4-0.1-0.6-0.3
			L112,3.4v15.2c0,0.4-0.3,0.6-0.6,0.6c-0.4,0-0.6-0.3-0.6-0.6V1.6z"/>
		<path d="M143.8,10.2L143.8,10.2c0-5,3.7-9.5,9.2-9.5c5.5,0,9.1,4.4,9.1,9.4v0.1c0,5-3.7,9.4-9.2,9.4
			C147.4,19.5,143.8,15.2,143.8,10.2z M160.7,10.2L160.7,10.2c0-4.5-3.3-8.2-7.8-8.2c-4.5,0-7.7,3.6-7.7,8.1v0.1
			c0,4.5,3.3,8.2,7.8,8.2C157.5,18.3,160.7,14.7,160.7,10.2z"/>
		<path d="M208.3,18.6V1.7c0-0.4,0.3-0.7,0.7-0.7h11.7c0.3,0,0.6,0.3,0.6,0.6c0,0.3-0.3,0.6-0.6,0.6h-11.1v7.1h6
			c0.3,0,0.6,0.3,0.6,0.6c0,0.3-0.3,0.6-0.6,0.6h-6V18h11.2c0.3,0,0.6,0.3,0.6,0.6c0,0.3-0.3,0.6-0.6,0.6h-11.9
			C208.6,19.2,208.3,18.9,208.3,18.6z"/>
		<path d="M95,18.3L87.3,1.5c-0.2-0.4-0.4-0.6-0.9-0.6h-0.1c-0.5,0-0.7,0.3-0.9,0.6l-7.8,16.8c-0.1,0.2-0.1,0.3-0.1,0.4
			c0,0.3,0.3,0.6,0.6,0.6c0.3,0,0.5-0.2,0.6-0.5l0.2-0.5l0,0l0,0l1.9-4.2h0l0.6-1.2h0l4.8-10.5l3.4,7.4l0,0l2,4.4h0l1.2,2.7l0,0l0,0
			l0.9,2c0.1,0.3,0.4,0.5,0.7,0.5c0.4,0,0.6-0.3,0.6-0.6C95.1,18.6,95.1,18.5,95,18.3z"/>
		<path d="M192.1,18.2l-5.2-6.7c3.1-0.4,5.3-2.2,5.3-5.2V6.2c0-1.3-0.5-2.5-1.4-3.4C189.8,1.7,188,1,185.7,1h-7
			c-0.4,0-0.7,0.3-0.7,0.7v16.9c0,0.4,0.3,0.7,0.7,0.7c0.4,0,0.7-0.3,0.7-0.7v-5.3v-1.6v-1.2V10V2.3h6.2c3.3,0,5.2,1.5,5.2,4v0.1
			c0,2.6-2.3,4.2-5.3,4.2h-0.1c-0.2,0-1,0.1-0.3,1l0.6,0.8l0,0h0L191,19c0.2,0.2,0.3,0.4,0.6,0.4c0.4,0,0.7-0.3,0.7-0.7
			C192.3,18.5,192.2,18.3,192.1,18.2z"/>
	</g>
</g>
</svg>
